<?xml version="1.0" encoding="UTF-8" standalone="no"?>
<svg
   xmlns:dc="http://purl.org/dc/elements/1.1/"
   xmlns:cc="http://creativecommons.org/ns#"
   xmlns:rdf="http://www.w3.org/1999/02/22-rdf-syntax-ns#"
   xmlns:svg="http://www.w3.org/2000/svg"
   xmlns="http://www.w3.org/2000/svg"
   xmlns:sodipodi="http://sodipodi.sourceforge.net/DTD/sodipodi-0.dtd"
   xmlns:inkscape="http://www.inkscape.org/namespaces/inkscape"
   version="1.1"
   id="svg2"
   xml:space="preserve"
   width="813.32001"
   height="352"
   viewBox="0 0 813.32001 352"
   sodipodi:docname="EPFL_Logo_Digital_RGB_PROD.eps"><metadata
     id="metadata8"><rdf:RDF><cc:Work
         rdf:about=""><dc:format>image/svg+xml</dc:format><dc:type
           rdf:resource="http://purl.org/dc/dcmitype/StillImage" /></cc:Work></rdf:RDF></metadata><defs
     id="defs6" /><sodipodi:namedview
     pagecolor="#ffffff"
     bordercolor="#666666"
     borderopacity="1"
     objecttolerance="10"
     gridtolerance="10"
     guidetolerance="10"
     inkscape:pageopacity="0"
     inkscape:pageshadow="2"
     inkscape:window-width="640"
     inkscape:window-height="480"
     id="namedview4" /><g
     id="g10"
     inkscape:groupmode="layer"
     inkscape:label="ink_ext_XXXXXX"
     transform="matrix(1.3333333,0,0,-1.3333333,0,352)"><g
       id="g12"
       transform="scale(0.1)"><path
         d="m 612.34,1451.03 h 305.672 v 315.62 H 1637.6 v 262.03 H 612.34 v -577.65"
         style="fill:#ee2939;fill-opacity:1;fill-rule:nonzero;stroke:none"
         id="path14" /><path
         d="M 612.34,611.352 H 1637.6 V 873.391 H 918.012 V 1189 H 612.34 V 611.352"
         style="fill:#ee2939;fill-opacity:1;fill-rule:nonzero;stroke:none"
         id="path16" /><path
         d="m 1576.07,1189 v 262.03 H 918.012 V 1189 h 658.058"
         style="fill:#ee2939;fill-opacity:1;fill-rule:nonzero;stroke:none"
         id="path18" /><path
         d="m 2698.55,1527.71 c -15.23,-20.63 -35.42,-36.63 -60.54,-47.92 -25.16,-11.31 -54.27,-18.94 -87.35,-22.85 -33.09,-3.96 -67.48,-5.91 -103.22,-5.91 h -242.16 v 315.57 h 242.16 c 35.74,0 70.13,-1.99 103.22,-5.9 33.08,-3.93 62.19,-11.57 87.35,-22.86 25.12,-11.3 45.31,-27.27 60.54,-47.92 15.2,-20.64 22.84,-47.7 22.84,-81.11 0,-33.42 -7.64,-60.45 -22.84,-81.1 z m 212.41,370.8 c -39.07,39.1 -89.68,70.59 -151.87,94.42 -62.21,23.82 -137.65,35.75 -226.28,35.75 H 1899.6 V 611.352 h 305.68 v 577.708 h 327.53 c 88.63,0 164.07,11.9 226.28,35.73 62.19,23.85 112.8,55.28 151.87,94.42 39.02,39.1 67.48,84.02 85.35,134.74 17.87,50.7 26.79,102.35 26.79,154.91 0,53.76 -8.92,105.7 -26.79,155.82 -17.87,50.11 -46.33,94.71 -85.35,133.83"
         style="fill:#ee2939;fill-opacity:1;fill-rule:nonzero;stroke:none"
         id="path20" /><path
         d="M 4769.95,873.391 V 2028.68 H 4464.27 V 611.352 h 1025.27 v 262.039 h -719.59"
         style="fill:#ee2939;fill-opacity:1;fill-rule:nonzero;stroke:none"
         id="path22" /><path
         d="m 3217.62,1451.03 h 305.69 v 315.62 h 719.59 v 262.03 H 3217.62 v -577.65"
         style="fill:#ee2939;fill-opacity:1;fill-rule:nonzero;stroke:none"
         id="path24" /><path
         d="m 3217.62,611.352 h 305.69 V 1189 H 3217.62 V 611.352"
         style="fill:#ee2939;fill-opacity:1;fill-rule:nonzero;stroke:none"
         id="path26" /><path
         d="m 4181.36,1189 v 262.03 H 3523.31 V 1189 h 658.05"
         style="fill:#ee2939;fill-opacity:1;fill-rule:nonzero;stroke:none"
         id="path28" /></g></g></svg>
