<?xml version="1.0" encoding="UTF-8" standalone="no"?>
<!DOCTYPE svg PUBLIC "-//W3C//DTD SVG 1.1//EN" "http://www.w3.org/Graphics/SVG/1.1/DTD/svg11.dtd">
<svg xmlns="http://www.w3.org/2000/svg" xmlns:xlink="http://www.w3.org/1999/xlink" version="1.1" width="157pt" height="101pt" viewBox="0 0 157 101">
<g enable-background="new">
<path transform="matrix(1,0,0,-1,0,101)" d="M 71.645 86.562 L 85.113 86.562 L 85.113 100.029 L 71.645 100.029 Z M 40.925 82.08 C 40.922 77.787 40.915 76.665 40.915 76.665 C 40.915 76.665 40.925 76.676 40.925 82.08 Z M 53.978 83.475 C 49.068 83.475 43.528 80.86 41.076 76.665 L 40.915 76.665 L 40.925 82.105 C 40.925 82.098 40.925 82.091 40.925 82.08 C 40.925 82.094 40.925 82.105 40.925 82.119 C 40.925 82.173 40.925 82.231 40.925 82.284 C 40.925 82.707 40.925 83.141 40.925 83.632 L 27.467 83.632 L 27.467 60.281 C 27.467 52.999 23.032 51.095 20.106 51.095 C 15.828 51.095 13.458 52.999 13.458 58.456 L 13.458 83.632 L 0 83.632 L 0 57.592 C 0 46.824 3.403 40.02 15.197 40.02 C 19.948 40.02 25.173 42.631 27.704 46.824 L 27.862 46.824 L 27.862 41.203 L 41.312 41.203 L 41.312 63.606 C 41.312 68.12 43.528 72.391 48.596 72.391 C 55.954 72.391 55.322 66.693 55.322 61.074 L 55.322 41.203 L 68.78 41.203 L 68.78 67.565 C 68.78 73.499 67.671 83.475 53.978 83.475 Z M 71.656 41.203 L 85.113 41.203 L 85.113 83.632 L 71.656 83.632 Z " fill="#185384"/>
<clipPath id="cp0">
<path transform="matrix(1,0,0,-1,0,101)" d="M 0 100.029 L 156.815 100.029 L 156.815 .05999756 L 0 .05999756 Z "/>
</clipPath>
<g clip-path="url(#cp0)">
<path transform="matrix(1,0,0,-1,0,101)" d="M 156.815 61.598 L 156.815 58.589 L 156.812 58.464 L 126.651 58.464 C 126.888 52.838 130.137 49.116 135.835 49.116 C 139.079 49.116 142.246 50.622 143.513 53.633 L 156.102 53.633 C 153.649 44.132 144.86 40.02 135.677 40.02 C 126.321 40.02 119.057 43.965 115.539 51.048 L 115.539 41.203 L 102.078 41.203 L 102.078 61.074 C 102.078 66.693 102.709 72.391 95.348 72.391 C 90.783 72.391 88.531 68.924 88.128 64.939 L 88.128 77.156 C 90.714 81.066 96.014 83.475 100.733 83.475 C 111.774 83.475 114.636 76.991 115.323 71.362 C 118.906 78.752 126.591 83.475 135.358 83.475 C 148.959 83.475 156.281 74.019 156.815 61.598 Z M 126.651 65.984 L 143.358 65.984 C 143.117 70.569 139.872 74.37 135.358 74.37 C 130.61 74.37 127.444 70.967 126.651 65.984 " fill="#b1b3b6"/>
<path transform="matrix(1,0,0,-1,0,101)" d="M 12.305 .194 L 19.815 .194 L 19.815 1.933 L 14.223 1.933 L 14.223 4.82 L 19.146 4.82 L 19.146 6.557 L 14.223 6.557 L 14.223 8.995 L 19.815 8.995 L 19.815 10.739 L 12.305 10.739 L 12.305 .194 Z M 27.754 4.267 C 27.754 3.518 27.577 2.905 27.218 2.439 C 26.863 1.971 26.302 1.739 25.542 1.739 C 24.778 1.739 24.219 1.971 23.86 2.439 C 23.5 2.905 23.324 3.518 23.324 4.267 L 23.324 10.739 L 21.404 10.739 L 21.404 4.24 C 21.404 3.611 21.49 3.043 21.666 2.522 C 21.84 1.999 22.098 1.555 22.446 1.181 C 22.793 .809 23.228 .522 23.744 .314 C 24.255 .106 24.857 0 25.542 0 C 26.224 0 26.824 .106 27.34 .314 C 27.855 .522 28.285 .809 28.633 1.181 C 28.979 1.555 29.241 1.999 29.411 2.522 C 29.585 3.043 29.675 3.611 29.675 4.24 L 29.675 10.739 L 27.754 10.739 L 27.754 4.267 Z M 47.548 6.618 L 43.22 6.618 L 43.22 10.739 L 41.3 10.739 L 41.3 .194 L 43.22 .194 L 43.22 4.793 L 47.548 4.793 L 47.548 .194 L 49.465 .194 L 49.465 10.739 L 47.548 10.739 L 47.548 6.618 Z M 33.311 7.059 C 33.354 7.334 33.427 7.589 33.524 7.84 C 33.623 8.086 33.76 8.303 33.943 8.49 C 34.149 8.722 34.392 8.893 34.677 9.011 C 34.96 9.13 35.258 9.189 35.561 9.189 C 35.889 9.189 36.192 9.137 36.48 9.027 C 36.76 8.92 36.982 8.753 37.153 8.534 C 37.289 8.366 37.402 8.197 37.483 8.022 C 37.56 7.848 37.608 7.647 37.628 7.42 L 39.591 7.42 C 39.542 7.837 39.437 8.24 39.278 8.642 C 39.122 9.038 38.89 9.395 38.582 9.714 C 38.184 10.118 37.723 10.421 37.202 10.625 C 36.674 10.829 36.127 10.932 35.561 10.932 C 34.998 10.932 34.46 10.833 33.951 10.64 C 33.441 10.444 32.979 10.147 32.572 9.741 C 32.285 9.454 32.054 9.151 31.88 8.834 C 31.708 8.513 31.575 8.178 31.487 7.821 C 31.397 7.463 31.34 7.088 31.31 6.695 C 31.279 6.293 31.267 5.883 31.267 5.456 C 31.267 5.022 31.279 4.609 31.31 4.212 C 31.34 3.823 31.397 3.452 31.487 3.093 C 31.575 2.733 31.708 2.396 31.88 2.082 C 32.054 1.765 32.285 1.46 32.572 1.176 C 32.979 .766 33.441 .47 33.951 .281 C 34.46 .096 34.998 0 35.561 0 C 36.127 0 36.674 .106 37.202 .321 C 37.723 .532 38.184 .841 38.582 1.25 C 38.89 1.569 39.122 1.926 39.278 2.328 C 39.437 2.728 39.542 3.136 39.591 3.554 L 37.628 3.554 C 37.59 3.12 37.433 2.736 37.153 2.403 C 36.982 2.185 36.76 2.021 36.48 1.908 C 36.192 1.797 35.889 1.739 35.561 1.739 C 35.258 1.739 34.96 1.8 34.677 1.918 C 34.392 2.032 34.149 2.211 33.943 2.435 C 33.76 2.626 33.623 2.844 33.524 3.09 C 33.427 3.335 33.354 3.599 33.311 3.869 C 33.264 4.14 33.239 4.411 33.228 4.693 C 33.217 4.972 33.214 5.228 33.214 5.464 C 33.214 5.703 33.217 5.96 33.228 6.234 C 33.239 6.513 33.264 6.788 33.311 7.059 Z M 80.233 10.739 L 78.315 10.739 L 78.315 .194 L 85.126 .194 L 85.126 2.007 L 80.233 2.007 L 80.233 10.739 Z M 59.371 8.954 L 62.494 8.954 L 62.494 .194 L 64.412 .194 L 64.412 8.954 L 67.534 8.954 L 67.534 10.739 L 59.371 10.739 L 59.371 8.954 Z M 68.919 .194 L 76.425 .194 L 76.425 1.933 L 70.835 1.933 L 70.835 4.82 L 75.756 4.82 L 75.756 6.557 L 70.835 6.557 L 70.835 8.995 L 76.425 8.995 L 76.425 10.739 L 68.919 10.739 L 68.919 .194 Z M 53.974 3.957 L 55.473 8.4 L 56.974 3.957 L 53.974 3.957 Z M 54.359 10.444 L 50.763 .194 L 52.694 .194 L 53.377 2.214 L 57.574 2.214 L 58.253 .194 L 60.262 .194 L 56.662 10.444 L 54.359 10.444 Z M 52.712 12.022 L 53.302 11.179 L 55.442 12.422 L 57.582 11.179 L 58.18 12.022 L 55.442 14.072 L 52.712 12.022 Z M 7.887 3.599 L 3.383 10.739 L 1.345 10.739 L 1.345 .194 L 3.234 .194 L 3.234 7.433 L 7.799 .194 L 9.778 .194 L 9.778 10.739 L 7.887 10.739 L 7.887 3.599 Z M 49.196 19.912 C 48.993 20.111 48.75 20.269 48.471 20.391 C 48.19 20.513 47.893 20.599 47.584 20.645 C 47.308 20.683 47.005 20.719 46.671 20.75 C 46.338 20.782 46.035 20.822 45.773 20.857 C 45.521 20.897 45.318 20.99 45.16 21.133 C 45.004 21.278 44.923 21.487 44.923 21.763 C 44.923 21.922 44.952 22.055 45 22.163 C 45.056 22.274 45.119 22.372 45.207 22.469 C 45.38 22.648 45.59 22.772 45.834 22.835 C 46.083 22.894 46.326 22.926 46.562 22.926 C 46.791 22.926 47.023 22.887 47.267 22.807 C 47.511 22.734 47.691 22.621 47.828 22.48 C 47.929 22.369 48.015 22.245 48.081 22.094 C 48.147 21.954 48.186 21.803 48.193 21.661 L 49.747 21.661 C 49.739 22.01 49.658 22.333 49.502 22.636 C 49.35 22.93 49.151 23.197 48.904 23.432 C 48.622 23.698 48.272 23.903 47.858 24.036 C 47.446 24.178 47.02 24.244 46.571 24.244 C 46.08 24.244 45.615 24.167 45.181 24.008 C 44.753 23.855 44.398 23.635 44.122 23.362 C 43.905 23.145 43.728 22.894 43.595 22.621 C 43.46 22.343 43.396 22.046 43.396 21.718 C 43.396 21.37 43.453 21.062 43.566 20.793 C 43.678 20.522 43.831 20.291 44.029 20.099 C 44.213 19.908 44.439 19.756 44.694 19.633 C 44.952 19.518 45.219 19.432 45.513 19.387 C 45.786 19.341 46.092 19.308 46.429 19.283 C 46.77 19.258 47.077 19.22 47.356 19.159 C 47.616 19.116 47.844 19.02 48.048 18.861 C 48.247 18.71 48.348 18.478 48.348 18.177 C 48.348 17.972 48.315 17.815 48.254 17.702 C 48.19 17.589 48.111 17.478 48.018 17.377 C 47.858 17.211 47.652 17.096 47.391 17.03 C 47.136 16.964 46.861 16.929 46.571 16.929 C 46.329 16.929 46.08 16.959 45.823 17.019 C 45.567 17.076 45.354 17.191 45.17 17.377 C 45.049 17.498 44.941 17.652 44.861 17.83 C 44.78 18.008 44.737 18.198 44.737 18.399 L 43.184 18.399 C 43.184 18.001 43.267 17.635 43.432 17.302 C 43.595 16.966 43.805 16.685 44.052 16.462 C 44.398 16.142 44.791 15.923 45.223 15.794 C 45.663 15.667 46.098 15.6 46.548 15.6 C 47.066 15.6 47.554 15.67 48.011 15.808 C 48.471 15.944 48.862 16.171 49.18 16.497 C 49.38 16.698 49.553 16.941 49.68 17.221 C 49.808 17.501 49.877 17.842 49.877 18.236 C 49.877 18.586 49.813 18.907 49.694 19.187 C 49.571 19.47 49.404 19.71 49.196 19.912 Z M 56.296 15.753 L 57.816 15.753 L 57.816 22.681 L 60.283 22.681 L 60.283 24.091 L 53.829 24.091 L 53.829 22.681 L 56.296 22.681 L 56.296 15.753 Z M 76.179 19.325 C 76.172 19.109 76.15 18.901 76.109 18.694 C 76.074 18.482 76.01 18.286 75.932 18.104 C 75.858 17.915 75.74 17.746 75.593 17.603 C 75.45 17.456 75.283 17.343 75.084 17.257 C 74.887 17.171 74.663 17.127 74.413 17.127 L 72.687 17.127 L 72.687 22.718 L 74.413 22.718 C 74.663 22.718 74.887 22.673 75.084 22.582 C 75.283 22.502 75.45 22.387 75.593 22.249 C 75.74 22.098 75.858 21.931 75.932 21.741 C 76.01 21.557 76.074 21.359 76.109 21.15 C 76.15 20.945 76.172 20.737 76.179 20.526 C 76.19 20.316 76.193 20.115 76.193 19.931 C 76.193 19.745 76.19 19.542 76.179 19.325 Z M 77.569 21.672 C 77.499 21.954 77.396 22.224 77.268 22.48 C 77.142 22.741 76.97 22.976 76.759 23.197 C 76.482 23.488 76.147 23.71 75.74 23.861 C 75.338 24.015 74.897 24.091 74.413 24.091 L 71.173 24.091 L 71.173 15.753 L 74.413 15.753 C 74.897 15.753 75.338 15.832 75.74 15.983 C 76.147 16.138 76.482 16.36 76.759 16.646 C 76.97 16.868 77.142 17.107 77.268 17.371 C 77.396 17.635 77.499 17.904 77.569 18.191 C 77.637 18.469 77.684 18.758 77.705 19.055 C 77.723 19.342 77.734 19.636 77.734 19.931 C 77.734 20.215 77.723 20.509 77.705 20.805 C 77.684 21.098 77.637 21.386 77.569 21.672 Z M 67.269 17.127 L 62.846 17.127 L 62.846 19.411 L 66.739 19.411 L 66.739 20.786 L 62.846 20.786 L 62.846 22.718 L 67.269 22.718 L 67.269 24.091 L 61.329 24.091 L 61.329 15.753 L 67.269 15.753 L 67.269 17.127 Z M 85.154 22.718 L 85.154 24.091 L 79.217 24.091 L 79.217 15.753 L 85.154 15.753 L 85.154 17.127 L 80.738 17.127 L 80.738 19.411 L 84.622 19.411 L 84.622 20.786 L 80.738 20.786 L 80.738 22.718 L 85.154 22.718 Z M 51.24 15.753 L 52.778 15.753 L 52.778 24.092 L 51.24 24.092 Z M 65.658 26.055 L 64.998 27.126 L 62.836 25.501 L 63.305 24.739 L 65.658 26.055 Z M 34.611 17.127 L 30.191 17.127 L 30.191 19.411 L 34.08 19.411 L 34.08 20.786 L 30.191 20.786 L 30.191 22.718 L 34.611 22.718 L 34.611 24.091 L 28.672 24.091 L 28.672 15.753 L 34.611 15.753 L 34.611 17.127 Z M 24.958 15.753 L 27.695 24.091 L 26.165 24.091 L 24.156 17.728 L 22.132 24.091 L 20.524 24.091 L 23.285 15.753 L 24.958 15.753 Z M 18.008 15.753 L 19.543999 15.753 L 19.543999 24.092 L 18.008 24.092 Z M 16.052 15.753 L 16.052 24.091 L 14.561 24.091 L 14.561 18.444 L 10.996 24.091 L 9.386 24.091 L 9.386 15.753 L 10.877 15.753 L 10.877 21.479 L 14.489 15.753 L 16.052 15.753 Z M 2.975 15.85 C 3.383 15.685 3.858 15.6 4.396 15.6 C 4.939 15.6 5.415 15.685 5.822 15.85 C 6.229 16.011 6.571 16.244 6.849 16.535 C 7.122 16.828 7.326 17.178 7.464 17.6 C 7.6 18.008 7.67 18.459 7.67 18.951 L 7.67 24.091 L 6.153 24.091 L 6.153 18.976 C 6.153 18.378 6.012 17.897 5.732 17.526 C 5.445 17.159 5.004 16.977 4.396 16.977 C 3.797 16.977 3.354 17.159 3.071 17.526 C 2.79 17.897 2.648 18.378 2.648 18.976 L 2.648 24.091 L 1.131 24.091 L 1.131 18.951 C 1.131 18.459 1.196 18.008 1.34 17.6 C 1.476 17.178 1.68 16.828 1.95 16.535 C 2.229 16.244 2.567 16.011 2.975 15.85 Z M 40.597 20.596 C 40.364 20.384 40.025 20.28 39.595 20.28 L 37.576 20.28 L 37.576 22.761 L 39.575 22.761 C 39.785 22.761 39.979 22.731 40.149 22.662 C 40.321 22.593 40.468 22.505 40.583 22.387 C 40.703 22.274 40.795 22.132 40.853 21.986 C 40.917 21.833 40.945 21.679 40.945 21.51 C 40.945 21.112 40.832 20.809 40.597 20.596 Z M 40.935 19.159 C 41.4 19.333 41.77 19.629 42.047 20.042 C 42.328 20.448 42.467 20.942 42.467 21.503 C 42.467 21.839 42.41 22.163 42.293 22.473 C 42.182 22.786 42.004 23.059 41.766 23.297 C 41.529 23.536 41.225 23.727 40.859 23.877 C 40.497 24.018 40.066 24.091 39.575 24.091 L 36.056 24.091 L 36.056 15.753 L 37.587 15.753 L 37.587 18.907 L 39.432 18.907 L 40.819 15.753 L 42.467 15.753 L 40.935 19.159 Z M 49.196 19.912 C 48.993 20.111 48.75 20.269 48.471 20.391 C 48.19 20.513 47.893 20.599 47.584 20.645 C 47.308 20.683 47.005 20.719 46.671 20.75 C 46.338 20.782 46.035 20.822 45.773 20.857 C 45.521 20.897 45.318 20.99 45.16 21.133 C 45.004 21.278 44.923 21.487 44.923 21.763 C 44.923 21.922 44.952 22.055 45 22.163 C 45.056 22.274 45.119 22.372 45.207 22.469 C 45.38 22.648 45.59 22.772 45.834 22.835 C 46.083 22.894 46.326 22.926 46.562 22.926 C 46.791 22.926 47.023 22.887 47.267 22.807 C 47.511 22.734 47.691 22.621 47.828 22.48 C 47.929 22.369 48.015 22.245 48.081 22.094 C 48.147 21.954 48.186 21.803 48.193 21.661 L 49.747 21.661 C 49.739 22.01 49.658 22.333 49.502 22.636 C 49.35 22.93 49.151 23.197 48.904 23.432 C 48.622 23.698 48.272 23.903 47.858 24.036 C 47.446 24.178 47.02 24.244 46.571 24.244 C 46.08 24.244 45.615 24.167 45.181 24.008 C 44.753 23.855 44.398 23.635 44.122 23.362 C 43.905 23.145 43.728 22.894 43.595 22.621 C 43.46 22.343 43.396 22.046 43.396 21.718 C 43.396 21.37 43.453 21.062 43.566 20.793 C 43.678 20.522 43.831 20.291 44.029 20.099 C 44.213 19.908 44.439 19.756 44.694 19.633 C 44.952 19.518 45.219 19.432 45.513 19.387 C 45.786 19.341 46.092 19.308 46.429 19.283 C 46.77 19.258 47.077 19.22 47.356 19.159 C 47.616 19.116 47.844 19.02 48.048 18.861 C 48.247 18.71 48.348 18.478 48.348 18.177 C 48.348 17.972 48.315 17.815 48.254 17.702 C 48.19 17.589 48.111 17.478 48.018 17.377 C 47.858 17.211 47.652 17.096 47.391 17.03 C 47.136 16.964 46.861 16.929 46.571 16.929 C 46.329 16.929 46.08 16.959 45.823 17.019 C 45.567 17.076 45.354 17.191 45.17 17.377 C 45.049 17.498 44.941 17.652 44.861 17.83 C 44.78 18.008 44.737 18.198 44.737 18.399 L 43.184 18.399 C 43.184 18.001 43.267 17.635 43.432 17.302 C 43.595 16.966 43.805 16.685 44.052 16.462 C 44.398 16.142 44.791 15.923 45.223 15.794 C 45.663 15.667 46.098 15.6 46.548 15.6 C 47.066 15.6 47.554 15.67 48.011 15.808 C 48.471 15.944 48.862 16.171 49.18 16.497 C 49.38 16.698 49.553 16.941 49.68 17.221 C 49.808 17.501 49.877 17.842 49.877 18.236 C 49.877 18.586 49.813 18.907 49.694 19.187 C 49.571 19.47 49.404 19.71 49.196 19.912 Z M 56.296 15.753 L 57.816 15.753 L 57.816 22.681 L 60.283 22.681 L 60.283 24.091 L 53.829 24.091 L 53.829 22.681 L 56.296 22.681 L 56.296 15.753 Z M 76.179 19.325 C 76.172 19.109 76.15 18.901 76.109 18.694 C 76.074 18.482 76.01 18.286 75.932 18.104 C 75.858 17.915 75.74 17.746 75.593 17.603 C 75.45 17.456 75.283 17.343 75.084 17.257 C 74.887 17.171 74.663 17.127 74.413 17.127 L 72.687 17.127 L 72.687 22.718 L 74.413 22.718 C 74.663 22.718 74.887 22.673 75.084 22.582 C 75.283 22.502 75.45 22.387 75.593 22.249 C 75.74 22.098 75.858 21.931 75.932 21.741 C 76.01 21.557 76.074 21.359 76.109 21.15 C 76.15 20.945 76.172 20.737 76.179 20.526 C 76.19 20.316 76.193 20.115 76.193 19.931 C 76.193 19.745 76.19 19.542 76.179 19.325 Z M 77.569 21.672 C 77.499 21.954 77.396 22.224 77.268 22.48 C 77.142 22.741 76.97 22.976 76.759 23.197 C 76.482 23.488 76.147 23.71 75.74 23.861 C 75.338 24.015 74.897 24.091 74.413 24.091 L 71.173 24.091 L 71.173 15.753 L 74.413 15.753 C 74.897 15.753 75.338 15.832 75.74 15.983 C 76.147 16.138 76.482 16.36 76.759 16.646 C 76.97 16.868 77.142 17.107 77.268 17.371 C 77.396 17.635 77.499 17.904 77.569 18.191 C 77.637 18.469 77.684 18.758 77.705 19.055 C 77.723 19.342 77.734 19.636 77.734 19.931 C 77.734 20.215 77.723 20.509 77.705 20.805 C 77.684 21.098 77.637 21.386 77.569 21.672 Z M 67.269 17.127 L 62.846 17.127 L 62.846 19.411 L 66.739 19.411 L 66.739 20.786 L 62.846 20.786 L 62.846 22.718 L 67.269 22.718 L 67.269 24.091 L 61.329 24.091 L 61.329 15.753 L 67.269 15.753 L 67.269 17.127 Z M 85.154 22.718 L 85.154 24.091 L 79.217 24.091 L 79.217 15.753 L 85.154 15.753 L 85.154 17.127 L 80.738 17.127 L 80.738 19.411 L 84.622 19.411 L 84.622 20.786 L 80.738 20.786 L 80.738 22.718 L 85.154 22.718 Z M 51.24 15.753 L 52.778 15.753 L 52.778 24.092 L 51.24 24.092 Z M 65.658 26.055 L 64.998 27.126 L 62.836 25.501 L 63.305 24.739 L 65.658 26.055 Z M 34.611 17.127 L 30.191 17.127 L 30.191 19.411 L 34.08 19.411 L 34.08 20.786 L 30.191 20.786 L 30.191 22.718 L 34.611 22.718 L 34.611 24.091 L 28.672 24.091 L 28.672 15.753 L 34.611 15.753 L 34.611 17.127 Z M 24.958 15.753 L 27.695 24.091 L 26.165 24.091 L 24.156 17.728 L 22.132 24.091 L 20.524 24.091 L 23.285 15.753 L 24.958 15.753 Z M 18.008 15.753 L 19.543999 15.753 L 19.543999 24.092 L 18.008 24.092 Z M 16.052 15.753 L 16.052 24.091 L 14.561 24.091 L 14.561 18.444 L 10.996 24.091 L 9.386 24.091 L 9.386 15.753 L 10.877 15.753 L 10.877 21.479 L 14.489 15.753 L 16.052 15.753 Z M 2.975 15.85 C 3.383 15.685 3.858 15.6 4.396 15.6 C 4.939 15.6 5.415 15.685 5.822 15.85 C 6.229 16.011 6.571 16.244 6.849 16.535 C 7.122 16.828 7.326 17.178 7.464 17.6 C 7.6 18.008 7.67 18.459 7.67 18.951 L 7.67 24.091 L 6.153 24.091 L 6.153 18.976 C 6.153 18.378 6.012 17.897 5.732 17.526 C 5.445 17.159 5.004 16.977 4.396 16.977 C 3.797 16.977 3.354 17.159 3.071 17.526 C 2.79 17.897 2.648 18.378 2.648 18.976 L 2.648 24.091 L 1.131 24.091 L 1.131 18.951 C 1.131 18.459 1.196 18.008 1.34 17.6 C 1.476 17.178 1.68 16.828 1.95 16.535 C 2.229 16.244 2.567 16.011 2.975 15.85 Z M 40.597 20.596 C 40.364 20.384 40.025 20.28 39.595 20.28 L 37.576 20.28 L 37.576 22.761 L 39.575 22.761 C 39.785 22.761 39.979 22.731 40.149 22.662 C 40.321 22.593 40.468 22.505 40.583 22.387 C 40.703 22.274 40.795 22.132 40.853 21.986 C 40.917 21.833 40.945 21.679 40.945 21.51 C 40.945 21.112 40.832 20.809 40.597 20.596 Z M 40.935 19.159 C 41.4 19.333 41.77 19.629 42.047 20.042 C 42.328 20.448 42.467 20.942 42.467 21.503 C 42.467 21.839 42.41 22.163 42.293 22.473 C 42.182 22.786 42.004 23.059 41.766 23.297 C 41.529 23.536 41.225 23.727 40.859 23.877 C 40.497 24.018 40.066 24.091 39.575 24.091 L 36.056 24.091 L 36.056 15.753 L 37.587 15.753 L 37.587 18.907 L 39.432 18.907 L 40.819 15.753 L 42.467 15.753 L 40.935 19.159 " fill="#185384"/>
</g>
</g>
</svg>
