<?xml version="1.0" encoding="utf-8"?>
<svg version="1.1" xmlns="http://www.w3.org/2000/svg" xmlns:xlink="http://www.w3.org/1999/xlink" x="0px" y="0px" viewBox="1413 444 360 749">
<g fill="#fff">
  <path d="M 1703.3222 639.55787 L 1720.1052 480.3742 C 1720.1052 480.3742 1724.5604 467.61054 1705.3565 464.6084 C 1688.6042 463.51587 1687.5564 475.28847 1687.5564 475.28847 L 1667.722 641.59216 L 1650.9391 640.575 L 1657.042 459.0141 C 1657.042 459.0141 1657.1558 445.1382 1640.7676 444.77403 C 1623.0242 445.56426 1622.9675 459.0141 1622.9675 459.0141 L 1613.8132 640.575 L 1599.5731 640.06644 L 1599.0645 491.05426 C 1599.0645 491.05426 1598.556 477.32276 1582.2816 477.83134 C 1564.6268 478.8485 1565.4987 490.0371 1565.4987 490.0371 C 1565.4987 490.0371 1564.3302 648.31245 1563.966 650.49754 C 1563.814 651.3404 1558.5033 713.1368 1527.1837 733.53096 C 1507.1537 743.72804 1454.3163 687.5964 1447.5095 684.31238 C 1443.4409 681.26093 1434.7951 677.7009 1425.1322 680.2438 C 1414.96075 682.2781 1410.4462 693.00152 1414.4522 704.65534 C 1418.4582 715.2166 1493.3148 781.23875 1508.6104 792.89256 C 1551.2197 824.2122 1562.5093 827.854 1562.5093 827.854 L 1563.9729 1192.8864 L 1720.1052 1191.8692 C 1720.1052 1191.8692 1701.2625 821.6629 1702.355 811.10165 C 1702.7192 810.3733 1702.7192 810.73746 1702.7192 810.73746 C 1718.379 792.89256 1740.0721 710.87495 1741.4605 698.5695 C 1742.4824 683.8038 1772.9968 537.84307 1772.9968 537.84307 C 1772.9968 537.84307 1773.5563 527.01044 1759.7739 521.5687 C 1741.9738 516.99153 1739.9395 529.1973 1739.9395 529.1973 L 1715.528 640.575 Z"/>
</g>
</svg>
